<?xml version="1.0" encoding="utf-8"?>
<!-- Generator: Adobe Illustrator 19.0.0, SVG Export Plug-In . SVG Version: 6.00 Build 0)  -->
<svg version="1.1" id="Warstwa_1" xmlns="http://www.w3.org/2000/svg" xmlns:xlink="http://www.w3.org/1999/xlink" x="0px" y="0px"
	 viewBox="-35 11 64 64" style="enable-background:new -35 11 64 64;" xml:space="preserve">
<g>
	<g>
		<path d="M28.8,39.4c-0.1-0.9-1.1-1.6-2.1-1.6c-2.9,0-5.5-1.7-6.6-4.4s-0.4-5.9,1.8-7.9c0.7-0.6,0.8-1.7,0.2-2.4
			c-1.5-1.8-3.2-3.6-5.1-5.1c-0.7-0.6-1.8-0.5-2.4,0.2c-1.9,2.1-5.3,2.9-8,1.8c-2.8-1.2-4.5-4-4.3-6.9c0.1-0.9-0.6-1.8-1.6-1.9
			c-2.4-0.3-4.8-0.3-7.2,0c-0.9,0.1-1.6,0.9-1.6,1.8c0.1,3-1.7,5.7-4.4,6.8c-2.6,1.1-6,0.3-7.9-1.8c-0.6-0.6-1.6-0.7-2.4-0.2
			c-1.9,1.6-3.6,3.3-5.2,5.2c-0.6,0.7-0.5,1.8,0.2,2.4c2.2,2,2.9,5.2,1.8,8c-1.1,2.6-3.8,4.3-7,4.3c-1,0-1.7,0.6-1.8,1.6
			c-0.3,2.4-0.3,4.9,0,7.3c0.1,0.9,1.2,1.6,2.1,1.6c2.8-0.1,5.5,1.7,6.6,4.4c1.1,2.7,0.4,5.9-1.8,7.9c-0.7,0.6-0.8,1.7-0.2,2.4
			c1.5,1.9,3.2,3.6,5.1,5.1c0.7,0.6,1.8,0.5,2.4-0.2c1.9-2.1,5.3-2.9,8-1.8c2.8,1.2,4.5,3.9,4.3,6.9c-0.1,0.9,0.6,1.8,1.6,1.9
			C-5.5,74.9-4.2,75-3,75c1.2,0,2.3-0.1,3.5-0.2c0.9-0.1,1.6-0.9,1.6-1.8c-0.1-3,1.7-5.7,4.4-6.8c2.6-1.1,6-0.3,7.9,1.8
			c0.6,0.7,1.7,0.8,2.4,0.2c1.9-1.5,3.7-3.2,5.2-5.1c0.6-0.7,0.5-1.8-0.2-2.4c-2.2-2-2.9-5.2-1.8-8c1.1-2.6,3.7-4.3,6.5-4.3h0.4
			c0.9,0.1,1.8-0.6,1.9-1.6C29.1,44.3,29.1,41.9,28.8,39.4L28.8,39.4z M-2.9,53.7c-5.9,0-10.7-4.8-10.7-10.7s4.8-10.7,10.7-10.7
			S7.8,37.1,7.8,43C7.7,49,2.9,53.7-2.9,53.7L-2.9,53.7z"/>
	</g>
</g>
</svg>
