<?xml version="1.0" encoding="utf-8"?>
<!-- Generator: Adobe Illustrator 19.0.0, SVG Export Plug-In . SVG Version: 6.00 Build 0)  -->
<svg version="1.1" id="Warstwa_1" xmlns="http://www.w3.org/2000/svg" xmlns:xlink="http://www.w3.org/1999/xlink" x="0px" y="0px"
	 viewBox="-223 225 64 64" style="enable-background:new -223 225 64 64;" xml:space="preserve">
<g>
	<path d="M-191,225c-17.7,0-32,14.3-32,32s14.3,32,32,32s32-14.3,32-32S-173.3,225-191,225L-191,225z M-182.1,272.2L-182.1,272.2
		c0,3.4-4,6.2-9,6.2c-4.9,0-9-2.8-9-6.2c0-0.7,5-20.4,5-20.4c-2.8-1.4-4.7-4.3-4.7-7.6c0-4.8,3.9-8.7,8.7-8.7s8.6,3.9,8.6,8.7
		c0,3.3-1.9,6.2-4.7,7.6c0,0,4.9,19.7,4.9,20.3L-182.1,272.2L-182.1,272.2z"/>
</g>
</svg>
