<?xml version="1.0" encoding="utf-8"?>
<!-- Generated by IcoMoon.io -->
<!DOCTYPE svg PUBLIC "-//W3C//DTD SVG 1.1//EN" "http://www.w3.org/Graphics/SVG/1.1/DTD/svg11.dtd">
<svg version="1.1" xmlns="http://www.w3.org/2000/svg" xmlns:xlink="http://www.w3.org/1999/xlink" width="1024" height="1024" viewBox="0 0 1024 1024">
<g id="icomoon-ignore">
</g>
<path fill="#000" d="M558.4 742.4c0 25.626-20.774 46.4-46.4 46.4s-46.4-20.774-46.4-46.4c0-25.626 20.774-46.4 46.4-46.4s46.4 20.774 46.4 46.4z"></path>
<path fill="#000" d="M512 235.2c-27.2 0-46.4 22.4-46.4 46.4v276.8c0 27.2 17.6 46.4 46.4 46.4s46.4-22.4 46.4-46.4v-276.8c0-28.8-19.2-46.4-46.4-46.4z"></path>
<path fill="#000" d="M512 1024c-281.6 0-512-230.4-512-512s230.4-512 512-512 512 230.4 512 512-230.4 512-512 512zM512 80c-238.4 0-432 193.6-432 432s193.6 432 432 432 432-193.6 432-432-193.6-432-432-432z"></path>
</svg>
