<?xml version="1.0" encoding="utf-8"?>
<!-- Generator: Adobe Illustrator 19.0.0, SVG Export Plug-In . SVG Version: 6.00 Build 0)  -->
<svg version="1.1" id="Warstwa_1" xmlns="http://www.w3.org/2000/svg" xmlns:xlink="http://www.w3.org/1999/xlink" x="0px" y="0px"
	 viewBox="-35 11 64 64" style="enable-background:new -35 11 64 64;" xml:space="preserve">
<g>
	<path d="M27.3,24.5h-60.6c-1,0-1.7-0.8-1.7-1.7v-4.3c0-1,0.8-1.7,1.7-1.7h60.5c1,0,1.8,0.8,1.8,1.7v4.3
		C29,23.7,28.2,24.5,27.3,24.5z"/>
	<path d="M15.8,46.8h-49.1c-1,0-1.7-0.8-1.7-1.8v-4.3c0-1,0.8-1.7,1.7-1.7h49.1c1,0,1.8,0.8,1.8,1.7V45C17.6,46,16.8,46.8,15.8,46.8
		z"/>
	<path d="M27.3,69.2h-60.6c-1,0-1.7-0.8-1.7-1.7v-4.3c0-1,0.8-1.7,1.7-1.7h60.5c1,0,1.8,0.8,1.8,1.7v4.3
		C29,68.3,28.2,69.2,27.3,69.2z"/>
</g>
</svg>
