<?xml version="1.0" encoding="utf-8"?>
<!-- Generator: Adobe Illustrator 19.0.0, SVG Export Plug-In . SVG Version: 6.00 Build 0)  -->
<svg version="1.1" id="Layer_1" xmlns="http://www.w3.org/2000/svg" xmlns:xlink="http://www.w3.org/1999/xlink" x="0px" y="0px"
	 viewBox="444 -470 1024 1024" style="enable-background:new 444 -470 1024 1024;" xml:space="preserve">
<style type="text/css">
	.st0{fill:#FFFFFF;}
</style>
<g id="icomoon-ignore">
</g>
<path class="st0" d="M1440.8-254H471.2c-16,0-27.2-12.8-27.2-27.2V-350c0-16,12.8-27.2,27.2-27.2h968c16,0,28.8,12.8,28.8,27.2v68.8
	C1468-266.8,1455.2-254,1440.8-254z"/>
<path class="st0" d="M1256.8,102.8H471.2c-16,0-27.2-12.8-27.2-28.8V5.2c0-16,12.8-27.2,27.2-27.2h785.6c16,0,28.8,12.8,28.8,27.2
	V74C1285.6,90,1272.8,102.8,1256.8,102.8z"/>
<path class="st0" d="M1440.8,461.2H471.2c-16,0-27.2-12.8-27.2-27.2v-68.8c0-16,12.8-27.2,27.2-27.2h968c16,0,28.8,12.8,28.8,27.2
	V434C1468,446.8,1455.2,461.2,1440.8,461.2z"/>
</svg>
