<?xml version="1.0" encoding="utf-8"?>
<!-- Generator: Adobe Illustrator 19.0.0, SVG Export Plug-In . SVG Version: 6.00 Build 0)  -->
<svg version="1.1" id="Warstwa_1" xmlns="http://www.w3.org/2000/svg" xmlns:xlink="http://www.w3.org/1999/xlink" x="0px" y="0px"
	 viewBox="-223 225 64 64" style="enable-background:new -223 225 64 64;" xml:space="preserve">
<g>
	<path d="M-183,234.2v8.5c2.3,1,4.3,2.4,6.1,4.2c3.8,3.7,5.9,8.8,5.9,14.1c0,5.3-2.1,10.4-5.9,14.1c-3.7,3.8-8.8,5.9-14.1,5.9
		s-10.4-2.1-14.1-5.9c-3.8-3.7-5.9-8.8-5.9-14.1c0-5.3,2.1-10.4,5.9-14.1c1.8-1.8,3.9-3.2,6.1-4.2v-8.5c-11.6,3.4-20,14.1-20,26.8
		c0,15.5,12.5,28,28,28s28-12.5,28-28C-163,248.3-171.4,237.6-183,234.2L-183,234.2z M-195,225h8v32h-8V225z"/>
</g>
</svg>
