<?xml version="1.0" encoding="utf-8"?>
<!-- Generator: Adobe Illustrator 19.2.1, SVG Export Plug-In . SVG Version: 6.00 Build 0)  -->
<svg version="1.1" id="Warstwa_1" xmlns="http://www.w3.org/2000/svg" xmlns:xlink="http://www.w3.org/1999/xlink" x="0px" y="0px"
	 viewBox="0 0 64 64" style="enable-background:new 0 0 64 64;" xml:space="preserve">
<style type="text/css">
	.st0{display:none;}
	.st1{display:inline;fill:#FFFFFF;}
	.st2{fill:#FFFFFF;stroke:#FFFFFF;stroke-miterlimit:10;}
</style>
<g class="st0">
	<path class="st1" d="M32,0C14.3,0,0,14.3,0,32s14.3,32,32,32s32-14.3,32-32S49.7,0,32,0L32,0z M40.9,47.2L40.9,47.2
		c0,3.4-4,6.2-9,6.2c-4.9,0-9-2.8-9-6.2c0-0.7,5-20.4,5-20.4c-2.8-1.4-4.7-4.3-4.7-7.6c0-4.8,3.9-8.7,8.7-8.7s8.6,3.9,8.6,8.7
		c0,3.3-1.9,6.2-4.7,7.6c0,0,4.9,19.7,4.9,20.3L40.9,47.2L40.9,47.2z"/>
</g>
<g>
	<path class="st2" d="M47.9,51.6H16.1C7.2,51.6,0,44.3,0,35.5v0c0-8.8,7.2-16.1,16.1-16.1h31.8c8.8,0,16.1,7.2,16.1,16.1v0
		C64,44.3,56.8,51.6,47.9,51.6z"/>
	<ellipse class="st2" cx="46.7" cy="35.5" rx="9.9" ry="10.2"/>
</g>
</svg>
