<?xml version="1.0" encoding="utf-8"?>
<!-- Generator: Adobe Illustrator 19.2.1, SVG Export Plug-In . SVG Version: 6.00 Build 0)  -->
<svg version="1.1" id="Warstwa_1" xmlns="http://www.w3.org/2000/svg" xmlns:xlink="http://www.w3.org/1999/xlink" x="0px" y="0px"
	 viewBox="0 0 64 64" style="enable-background:new 0 0 64 64;" xml:space="preserve">
<style type="text/css">
	.st0{display:none;fill:#FFFFFF;}
	.st1{display:none;}
	.st2{display:inline;fill:#FFFFFF;stroke:#FFFFFF;stroke-miterlimit:10;}
	.st3{fill:#FFFFFF;}
</style>
<path class="st0" d="M0,10.4c0-2.9,2.3-5.2,5.2-5.2h53.6c2.9,0,5.2,2.3,5.2,5.2s-2.3,5.2-5.2,5.2H5.2C2.3,15.6,0,13.3,0,10.4L0,10.4
	z M44.9,27.2H4c-2.2,0-4,2.3-4,5.2s1.8,5.2,4,5.2h40.9c2.2,0,4-2.3,4-5.2S47.1,27.2,44.9,27.2L44.9,27.2z M58.8,49.2H5.2
	c-2.9,0-5.2,2.3-5.2,5.2s2.3,5.2,5.2,5.2h53.6c2.9,0,5.2-2.3,5.2-5.2S61.7,49.2,58.8,49.2L58.8,49.2z"/>
<g class="st1">
	<path class="st2" d="M62.3,13.6H1.7c-1,0-1.7-0.8-1.7-1.7V7.6c0-1,0.8-1.7,1.7-1.7h60.5c1,0,1.8,0.8,1.8,1.7v4.3
		C64,12.8,63.2,13.6,62.3,13.6z"/>
	<path class="st2" d="M50.8,35.9H1.7c-1,0-1.7-0.8-1.7-1.8l0-4.3c0-1,0.8-1.7,1.7-1.7h49.1c1,0,1.8,0.8,1.8,1.7v4.3
		C52.6,35.1,51.8,35.9,50.8,35.9z"/>
	<path class="st2" d="M62.3,58.2H1.7c-1,0-1.7-0.8-1.7-1.7v-4.3c0-1,0.8-1.7,1.7-1.7h60.5c1,0,1.8,0.8,1.8,1.7v4.3
		C64,57.4,63.2,58.2,62.3,58.2z"/>
</g>
<g>
	<path class="st3" d="M32,22c-1.5,0-2.5,1.2-2.5,2.5v14.9c0,1.5,1,2.5,2.5,2.5c1.5,0,2.5-1.2,2.5-2.5V24.5C34.5,23,33.5,22,32,22
		L32,22z M32,22"/>
	<g>
		<path class="st3" d="M34.5,49.3c0,1.4-1.1,2.5-2.5,2.5c-1.4,0-2.5-1.1-2.5-2.5c0-1.4,1.1-2.5,2.5-2.5C33.4,46.9,34.5,48,34.5,49.3
			L34.5,49.3z M34.5,49.3"/>
		<path class="st3" d="M62.8,50.8L36,7.4c-2.2-3.5-5.7-3.5-7.9,0L1.2,50.8c-2.7,4.7-0.7,8.4,4.7,8.4h51.9
			C63.5,59.3,65.5,55.5,62.8,50.8L62.8,50.8z M58.6,56.8H5.4c-2.7,0-3.7-2-2.2-4.2L30.5,8.4c0.7-1.5,2.2-1.5,3.2,0l27.3,44.2
			C62.3,54.8,61.3,56.8,58.6,56.8L58.6,56.8z M58.6,56.8"/>
	</g>
</g>
</svg>
